<svg width="158" height="43" viewBox="0 0 158 43" fill="none" xmlns="http://www.w3.org/2000/svg">
<path d="M55.2835 33.4664C54.5411 33.4664 53.8839 33.361 53.312 33.1503C52.7501 32.9296 52.2735 32.6236 51.8822 32.2323C51.501 31.831 51.21 31.3494 51.0093 30.7875C50.8087 30.2256 50.7083 29.5985 50.7083 28.9062V20.8394H49.3839C49.1431 20.8394 48.9374 20.7642 48.7669 20.6137C48.5963 20.4532 48.511 20.2224 48.511 19.9214V18.1003L50.9943 17.6187L51.9123 13.8111C52.0327 13.3295 52.3739 13.0887 52.9357 13.0887H55.3738V17.6488H59.2417V20.8394H55.3738V28.5902C55.3738 28.9514 55.4591 29.2524 55.6297 29.4932C55.8103 29.724 56.0661 29.8393 56.3972 29.8393C56.5678 29.8393 56.7083 29.8243 56.8186 29.7942C56.939 29.7541 57.0394 29.7139 57.1196 29.6738C57.2099 29.6236 57.2902 29.5835 57.3604 29.5534C57.4407 29.5133 57.531 29.4932 57.6313 29.4932C57.7718 29.4932 57.8822 29.5283 57.9624 29.5985C58.0527 29.6587 58.143 29.7591 58.2333 29.8995L59.648 32.1119C59.046 32.5634 58.3688 32.9045 57.6163 33.1353C56.8638 33.356 56.0862 33.4664 55.2835 33.4664ZM65.9175 18.9883C66.4794 18.5067 67.0864 18.1204 67.7386 17.8294C68.4008 17.5284 69.1884 17.3779 70.1014 17.3779C70.9543 17.3779 71.7068 17.5284 72.3589 17.8294C73.0211 18.1204 73.578 18.5318 74.0295 19.0635C74.481 19.5853 74.8221 20.2124 75.0529 20.9448C75.2836 21.6672 75.399 22.4548 75.399 23.3076V33.2256H70.7335V23.3076C70.7335 22.5451 70.5579 21.9531 70.2068 21.5317C69.8556 21.1003 69.3389 20.8846 68.6566 20.8846C68.1449 20.8846 67.6633 20.995 67.2118 21.2157C66.7704 21.4264 66.3389 21.7174 65.9175 22.0886V33.2256H61.252V10.6957H65.9175V18.9883ZM88.1257 23.5484C88.1257 23.1772 88.0755 22.816 87.9752 22.4648C87.8849 22.1137 87.7294 21.8026 87.5086 21.5317C87.2979 21.2508 87.017 21.0251 86.6658 20.8545C86.3147 20.6839 85.8882 20.5986 85.3866 20.5986C84.5036 20.5986 83.8113 20.8545 83.3097 21.3662C82.808 21.8679 82.4769 22.5953 82.3164 23.5484H88.1257ZM82.2562 26.2574C82.4067 27.5618 82.803 28.5099 83.4451 29.1019C84.0873 29.6838 84.915 29.9748 85.9284 29.9748C86.4702 29.9748 86.9367 29.9096 87.328 29.7791C87.7193 29.6487 88.0655 29.5032 88.3665 29.3427C88.6775 29.1822 88.9584 29.0367 89.2093 28.9062C89.4701 28.7758 89.741 28.7106 90.022 28.7106C90.3932 28.7106 90.6741 28.846 90.8648 29.1169L92.2193 30.7875C91.7377 31.3393 91.2159 31.7908 90.6541 32.142C90.1022 32.4831 89.5303 32.754 88.9384 32.9547C88.3564 33.1453 87.7695 33.2758 87.1775 33.346C86.5956 33.4263 86.0387 33.4664 85.507 33.4664C84.4133 33.4664 83.3849 33.2908 82.4217 32.9396C81.4686 32.5784 80.6308 32.0467 79.9084 31.3443C79.196 30.642 78.6291 29.7691 78.2077 28.7256C77.7964 27.6822 77.5907 26.4681 77.5907 25.0835C77.5907 24.0401 77.7663 23.0518 78.1174 22.1187C78.4786 21.1856 78.9903 20.3679 79.6525 19.6655C80.3248 18.9632 81.1324 18.4064 82.0756 17.995C83.0287 17.5836 84.1023 17.3779 85.2963 17.3779C86.3297 17.3779 87.2728 17.5385 88.1257 17.8595C88.9885 18.1806 89.726 18.6472 90.338 19.2592C90.9601 19.8712 91.4417 20.6237 91.7828 21.5167C92.134 22.3996 92.3096 23.403 92.3096 24.5267C92.3096 24.8779 92.2945 25.1638 92.2644 25.3845C92.2343 25.6053 92.1791 25.7809 92.0989 25.9113C92.0186 26.0417 91.9082 26.132 91.7678 26.1822C91.6373 26.2324 91.4668 26.2574 91.2561 26.2574H82.2562ZM106.276 18.9883C106.838 18.5067 107.445 18.1204 108.097 17.8294C108.759 17.5284 109.547 17.3779 110.46 17.3779C111.313 17.3779 112.065 17.5284 112.718 17.8294C113.38 18.1204 113.937 18.5318 114.388 19.0635C114.84 19.5853 115.181 20.2124 115.412 20.9448C115.642 21.6672 115.758 22.4548 115.758 23.3076V33.2256H111.092V23.3076C111.092 22.5451 110.917 21.9531 110.565 21.5317C110.214 21.1003 109.698 20.8846 109.015 20.8846C108.504 20.8846 108.022 20.995 107.571 21.2157C107.129 21.4264 106.698 21.7174 106.276 22.0886V33.2256H101.611V10.6957H106.276V18.9883ZM123.548 17.6187V33.2256H118.882V17.6187H123.548ZM124.03 13.3445C124.03 13.7158 123.954 14.0669 123.804 14.398C123.653 14.7191 123.448 15.0051 123.187 15.2559C122.926 15.4967 122.62 15.6923 122.269 15.8428C121.928 15.9833 121.561 16.0535 121.17 16.0535C120.789 16.0535 120.433 15.9833 120.102 15.8428C119.77 15.6923 119.474 15.4967 119.214 15.2559C118.963 15.0051 118.762 14.7191 118.612 14.398C118.471 14.0669 118.401 13.7158 118.401 13.3445C118.401 12.9633 118.471 12.6071 118.612 12.276C118.762 11.9449 118.963 11.6539 119.214 11.4031C119.474 11.1523 119.77 10.9566 120.102 10.8161C120.433 10.6757 120.789 10.6054 121.17 10.6054C121.561 10.6054 121.928 10.6757 122.269 10.8161C122.62 10.9566 122.926 11.1523 123.187 11.4031C123.448 11.6539 123.653 11.9449 123.804 12.276C123.954 12.6071 124.03 12.9633 124.03 13.3445ZM131.467 10.6957V23.3227H132.16C132.451 23.3227 132.671 23.2826 132.822 23.2023C132.972 23.112 133.123 22.9665 133.273 22.7658L136.223 18.3712C136.404 18.1204 136.609 17.9348 136.84 17.8144C137.071 17.684 137.367 17.6187 137.728 17.6187H142.002L137.969 23.1722C137.588 23.6739 137.136 24.0852 136.614 24.4063C136.845 24.5769 137.056 24.7775 137.247 25.0083C137.437 25.229 137.618 25.4799 137.788 25.7608L142.183 33.2256H137.969C137.618 33.2256 137.317 33.1704 137.066 33.06C136.815 32.9396 136.604 32.734 136.434 32.443L133.484 26.9196C133.344 26.6688 133.198 26.5083 133.048 26.438C132.897 26.3578 132.671 26.3176 132.37 26.3176H131.467V33.2256H126.802V10.6957H131.467ZM152.617 23.5484C152.617 23.1772 152.567 22.816 152.467 22.4648C152.376 22.1137 152.221 21.8026 152 21.5317C151.79 21.2508 151.509 21.0251 151.157 20.8545C150.806 20.6839 150.38 20.5986 149.878 20.5986C148.995 20.5986 148.303 20.8545 147.801 21.3662C147.3 21.8679 146.969 22.5953 146.808 23.5484H152.617ZM146.748 26.2574C146.898 27.5618 147.295 28.5099 147.937 29.1019C148.579 29.6838 149.407 29.9748 150.42 29.9748C150.962 29.9748 151.428 29.9096 151.82 29.7791C152.211 29.6487 152.557 29.5032 152.858 29.3427C153.169 29.1822 153.45 29.0367 153.701 28.9062C153.962 28.7758 154.233 28.7106 154.514 28.7106C154.885 28.7106 155.166 28.846 155.356 29.1169L156.711 30.7875C156.229 31.3393 155.708 31.7908 155.146 32.142C154.594 32.4831 154.022 32.754 153.43 32.9547C152.848 33.1453 152.261 33.2758 151.669 33.346C151.087 33.4263 150.53 33.4664 149.999 33.4664C148.905 33.4664 147.877 33.2908 146.913 32.9396C145.96 32.5784 145.122 32.0467 144.4 31.3443C143.688 30.642 143.121 29.7691 142.699 28.7256C142.288 27.6822 142.082 26.4681 142.082 25.0835C142.082 24.0401 142.258 23.0518 142.609 22.1187C142.97 21.1856 143.482 20.3679 144.144 19.6655C144.816 18.9632 145.624 18.4064 146.567 17.995C147.52 17.5836 148.594 17.3779 149.788 17.3779C150.821 17.3779 151.764 17.5385 152.617 17.8595C153.48 18.1806 154.218 18.6472 154.83 19.2592C155.452 19.8712 155.933 20.6237 156.274 21.5167C156.626 22.3996 156.801 23.403 156.801 24.5267C156.801 24.8779 156.786 25.1638 156.756 25.3845C156.726 25.6053 156.671 25.7809 156.59 25.9113C156.51 26.0417 156.4 26.132 156.259 26.1822C156.129 26.2324 155.958 26.2574 155.748 26.2574H146.748Z" fill="#131313"/>
<circle cx="21.5" cy="21.5" r="21.5" fill="#131313"/>
<path d="M17.7289 17.7685H15.0844V25.4375H12.9043V17.7685H10.2598V16.0399H17.7289V17.7685ZM19.3085 25.3601C19.2612 25.4762 19.1988 25.5794 19.1214 25.6697C19.0483 25.76 18.9645 25.8352 18.8699 25.8954C18.7796 25.9556 18.6807 26.0008 18.5732 26.0309C18.47 26.061 18.3668 26.076 18.2636 26.076H17.4122L21.0758 16.4591C21.1618 16.2398 21.2929 16.0721 21.4692 15.956C21.6455 15.8399 21.8498 15.7819 22.082 15.7819H22.9334L19.3085 25.3601ZM32.3699 16.0399V25.4375H30.1769V21.4643H26.3585V25.4375H24.1655V16.0399H26.3585V19.9679H30.1769V16.0399H32.3699Z" fill="white"/>
</svg>
